<svg viewBox="0 0 514.7 186.5" xmlns="http://www.w3.org/2000/svg" xmlns:xlink="http://www.w3.org/1999/xlink" overflow="hidden"><g fill="#FFFFFF"><path d="M224 135.8 194.9 54.7 220 54.7 235.5 105.3 235.8 105.3 251.3 54.7 276.4 54.7 247.2 135.8Z"></path><path d="M388 135.8 388 92.1C388 79.4 383.9 74.7 375.6 74.7 366.4 74.7 362.1 80.3 362.1 90.9L362.1 135.8 337.8 135.8 337.8 91.1C337.8 80.6 334 74.7 325.7 74.7 316.2 74.7 312 80.8 312 92.1L312 135.8 287.7 135.8 287.7 54.7 310.4 54.7 310.4 63.3 310.7 63.3C314.9 55.7 322.7 51.9 333.1 51.9 343.5 51.9 351.4 57.2 356.5 66.4 362.4 57.2 371.1 51.9 382.2 51.9 400.3 51.9 412.3 63 412.3 85.7L412.3 135.8Z"></path><path d="M490.4 135.8 490.4 127 490.1 127C486.6 134.2 476.9 138.6 466.3 138.6 442.3 138.6 425.7 119.7 425.7 95.2 425.7 70.7 443.1 51.9 466.3 51.9 476.2 51.9 485.4 55.9 490.1 63.3L490.4 63.3 490.4 54.7 514.7 54.7 514.7 135.8ZM490.4 95.2C490.416 83.839 481.219 74.616 469.858 74.6 469.839 74.6 469.819 74.6 469.8 74.6 458.4 74.6 449.9 83.8 449.9 95.5 449.9 107.2 458.8 116 470.1 116 481.4 116 490.4 106.9 490.4 95.2Z"></path></g><g><path d="M80.8 0 40.4 23.3 80.8 46.6 121.1 23.3Z" fill="#91D4F5"></path><path d="M0 46.6 0 93.2 40.4 69.9 40.4 23.3Z" fill="#91D4F5"></path><path d="M0 93.2 0 139.9 40.4 163.2 40.4 116.6Z" fill="#79C4B1"></path><path d="M80.8 93.2 80.8 139.9 40.4 116.6Z" fill="#008779"></path><path d="M80.8 139.9 40.4 163.2 80.8 186.5 121.1 163.2Z" fill="#79C4B1"></path><path d="M121.1 116.6 121.1 163.2 161.5 139.9 161.5 93.2Z" fill="#73C1EC"></path><path d="M121.1 69.9 121.1 116.6 80.8 93.2Z" fill="#0080C8"></path><path d="M121.1 23.3 121.1 69.9 161.5 93.2 161.5 46.6Z" fill="#73C1EC"></path><path d="M121.1 116.6 121.1 163.2 80.8 139.9Z" fill="#009FA6"></path><path d="M121.1 23.3 121.1 69.9 80.8 46.6Z" fill="#00ADE5"></path><path d="M161.5 93.2 121.1 116.6 121.1 69.9Z" fill="#00A2DE"></path><path d="M121.1 69.9 80.8 93.2 80.8 46.6Z" fill="#008AD1"></path><path d="M121.1 116.6 80.8 139.9 80.8 93.2Z" fill="#00878E"></path><path d="M80.8 46.6 40.4 69.9 40.4 23.3Z" fill="#00BAED"></path><path d="M40.4 69.9 40.4 116.6 0 93.2Z" fill="#00A7AA"></path><path d="M80.8 93.2 40.4 116.6 40.4 69.9Z" fill="#008F93"></path><path d="M80.8 139.9 40.4 163.2 40.4 116.6Z" fill="#00A781"></path><path d="M80.8 46.6 80.8 93.2 40.4 69.9Z" fill="#0091D5"></path></g></svg>