<?xml version="1.0" encoding="UTF-8"?>
<svg id="Layer_1" data-name="Layer 1" xmlns="http://www.w3.org/2000/svg" width="887.93" height="195.85" viewBox="0 0 887.93 195.85">
  <defs>
    <style>
      .cls-1 {
        fill: #00173a;
      }

      .cls-2 {
        fill: #b9bf04;
      }

      .cls-3 {
        fill: #d8d900;
      }

      .cls-4 {
        fill: #dddb00;
      }

      .cls-5 {
        fill: #20692d;
      }

      .cls-6 {
        fill: #1a692d;
      }

      .cls-7 {
        fill: #147e34;
      }

      .cls-8 {
        fill: #1c602a;
      }

      .cls-9 {
        fill: #a1c413;
      }

      .cls-10 {
        fill: #6c8d2c;
      }

      .cls-11 {
        fill: #288a35;
      }

      .cls-12 {
        fill: #83ad26;
      }

      .cls-13 {
        fill: #83ae26;
      }

      .cls-14 {
        fill: #4e802f;
      }

      .cls-15 {
        fill: #50ad30;
      }

      .cls-16 {
        fill: none;
        stroke: #00173a;
        stroke-miterlimit: 10;
      }
    </style>
  </defs>
  <g>
    <path class="cls-1" d="M211.95,139.21V28.83h24.76V62.99c6.56-7.01,14.92-9.4,23.57-9.4,21.48,0,41.17,16.11,41.17,43.71,0,25.51-16.26,44.75-41.77,44.75-9.99,0-19.99-4.62-23.72-11.64h-.3v8.8h-23.72Zm64.74-41.47c0-11.04-8.5-21.03-20.44-21.03s-20.44,9.4-20.44,20.88c0,12.23,8.65,21.33,20.14,21.33s20.73-9.25,20.73-21.18Z"/>
    <path class="cls-1" d="M315.33,166.81V56.42h23.27v9.1h.45c6.56-8.2,15.66-11.93,25.96-11.93,23.57,0,40.28,19.24,40.28,45.05,0,23.57-16.56,43.41-40.28,43.41-9.7,0-18.2-2.98-24.91-10.29v35.05h-24.76Zm65.19-68.92c0-11.64-8.95-21.18-20.88-21.18s-20.59,9.25-20.59,21.18,8.95,21.03,20.73,21.03,20.73-9.55,20.73-21.03Z"/>
    <path class="cls-1" d="M419.3,47.62V28.83h24.76v18.8h-24.76Zm0,91.59V56.42h24.76v82.79h-24.76Z"/>
  </g>
  <g>
    <polygon class="cls-15" points="94.71 4.48 54.25 27.83 94.71 51.17 135.16 27.83 94.71 4.48"/>
    <polygon class="cls-15" points="13.8 51.17 13.8 97.89 54.25 74.55 54.25 27.83 13.8 51.17"/>
    <polygon class="cls-9" points="13.8 97.89 13.8 144.61 54.25 167.96 54.25 121.27 54.25 121.24 13.8 97.89"/>
    <polygon class="cls-14" points="94.71 97.89 94.71 144.61 54.25 121.27 54.25 121.24 94.71 97.89"/>
    <polygon class="cls-3" points="94.71 144.61 54.25 167.96 94.71 191.33 135.16 167.96 94.71 144.61"/>
    <polygon class="cls-4" points="135.16 121.24 135.16 121.27 135.16 167.96 175.61 144.61 175.61 97.89 135.16 121.24"/>
    <polygon class="cls-14" points="135.16 74.55 135.16 121.24 94.71 97.89 135.16 74.55"/>
    <polygon class="cls-9" points="135.16 27.83 135.16 74.55 175.61 97.89 175.61 51.17 135.16 27.83"/>
    <polygon class="cls-2" points="135.16 121.27 135.16 167.96 94.71 144.61 135.16 121.27"/>
    <polygon class="cls-11" points="135.16 27.83 135.16 74.55 94.71 51.17 135.16 27.83"/>
    <polygon class="cls-13" points="175.61 97.89 135.16 121.24 135.16 74.55 175.61 97.89"/>
    <polygon class="cls-6" points="135.16 74.55 94.71 97.89 94.71 51.17 135.16 74.55"/>
    <polygon class="cls-10" points="135.16 121.24 135.16 121.27 94.71 144.61 94.71 97.89 135.16 121.24"/>
    <polygon class="cls-7" points="94.71 51.17 54.25 74.55 54.25 27.83 94.71 51.17"/>
    <polygon class="cls-11" points="54.25 74.55 54.25 121.24 13.8 97.89 54.25 74.55"/>
    <polygon class="cls-5" points="94.71 97.89 54.25 121.24 54.25 74.55 94.71 97.89"/>
    <polygon class="cls-12" points="94.71 144.61 54.25 167.96 54.25 121.27 94.71 144.61"/>
    <polygon class="cls-8" points="94.71 51.17 94.71 97.89 54.25 74.55 94.71 51.17"/>
  </g>
  <g>
    <path class="cls-1" d="M534.24,56.72v18.86c0,3.32,.34,5,1.22,6.34,1.3,1.89,3.44,2.81,6.59,2.81,3.45,0,5.71-1.13,6.89-3.36,.67-1.26,.92-2.86,.92-5.8v-18.86h2.9v17.81c0,4.49-.46,6.93-1.64,8.7-1.76,2.6-4.79,3.91-9.07,3.91-4.62,0-7.85-1.55-9.49-4.58-.84-1.6-1.22-4.08-1.22-8.02v-17.81h2.9Z"/>
    <path class="cls-1" d="M564.74,86.72h-2.82v-29.99h7.35c3.45,0,5.71,.55,7.31,1.72,1.89,1.39,2.9,3.57,2.9,6.3,0,3.11-1.47,5.67-3.95,6.8-1.43,.63-3.15,1.01-5.5,1.18l11.26,13.99h-3.24l-10.88-13.65h-2.44v13.65Zm3.99-15.92c2.94,0,4.54-.38,5.71-1.3,1.34-1.05,2.14-2.77,2.14-4.66,0-2.06-.92-3.86-2.48-4.83-1.05-.67-2.52-.92-5.04-.92h-4.33v11.72h3.99Z"/>
    <path class="cls-1" d="M587.2,56.72h7.27c3.32,0,5.8,.5,7.23,1.43,1.89,1.22,2.98,3.44,2.98,6.05,0,3.11-1.51,5.38-4.33,6.55,1.68,.59,2.52,1.05,3.45,2.02,1.43,1.47,2.18,3.49,2.18,5.8,0,2.9-1.13,5.25-3.23,6.68-1.47,1.01-3.57,1.47-6.72,1.47h-8.82v-29.99Zm7.73,13.19c2.56,0,3.95-.34,5.12-1.26,1.26-1.01,1.97-2.52,1.97-4.28,0-1.93-.88-3.61-2.35-4.5-.97-.59-2.6-.88-4.75-.88h-4.96v10.92h4.96Zm.59,14.49c2.77,0,4.49-.42,5.67-1.43,1.22-1.01,1.89-2.69,1.89-4.58,0-2.35-1.05-4.37-2.81-5.38-1.13-.67-2.65-.97-5.12-.97h-5.17v12.35h5.54Z"/>
    <path class="cls-1" d="M615.91,78.53l-3.28,8.19h-2.98l12.52-30.25h1.97l12.52,30.25h-2.98l-3.32-8.19h-14.45Zm7.22-18.61l-6.51,16.3h13.06l-6.55-16.3Z"/>
    <path class="cls-1" d="M642.59,56.6h2.06l19.62,25.25v-25.12h2.69v30.29h-1.76l-19.91-25.71v25.41h-2.69v-30.12Z"/>
    <path class="cls-1" d="M686.4,82.26c2.06,1.6,5.12,2.48,8.65,2.48,4.5,0,7.1-2.06,7.1-5.59,0-1.68-.63-3.19-1.81-4.16-1.13-.92-1.76-1.22-5.59-2.73-6.01-2.35-8.02-4.58-8.02-8.7,0-4.49,3.19-7.27,8.49-7.27,2.94,0,5.38,.67,7.73,2.14l-1.09,2.1c-2.18-1.3-4.12-1.85-6.6-1.85-3.65,0-5.84,1.76-5.84,4.71,0,1.51,.63,2.94,1.76,3.87,1.05,.92,2.06,1.43,4.92,2.52,3.74,1.43,5.33,2.27,6.76,3.65,1.3,1.26,2.06,3.19,2.06,5.38,0,5.38-3.57,8.32-10.17,8.32-3.86,0-7.23-.92-9.54-2.69l1.18-2.18Z"/>
    <path class="cls-1" d="M711.7,56.72h2.9v13.15h16.26v-13.15h2.9v29.99h-2.9v-14.45h-16.26v14.45h-2.9v-29.99Z"/>
    <path class="cls-1" d="M745.93,78.53l-3.28,8.19h-2.98l12.52-30.25h1.97l12.52,30.25h-2.98l-3.32-8.19h-14.45Zm7.22-18.61l-6.51,16.3h13.06l-6.55-16.3Z"/>
    <path class="cls-1" d="M775.42,86.72h-2.82v-29.99h6.85c3.57,0,5.92,.59,7.56,1.89,1.93,1.55,2.98,4.03,2.98,7.02,0,3.28-1.26,5.92-3.57,7.39-1.51,.97-3.74,1.47-6.68,1.47h-4.33v12.22Zm3.82-14.58c2.98,0,4.54-.38,5.71-1.39,1.39-1.18,2.14-2.98,2.14-5.17,0-2.35-.92-4.37-2.56-5.46-1.13-.76-2.65-1.05-5.29-1.05h-3.82v13.06h3.82Z"/>
    <path class="cls-1" d="M796.39,56.72h15.88v2.39h-13.02v10.75h11.64v2.39h-11.64v12.06h13.53v2.39h-16.38v-29.99Z"/>
    <path class="cls-1" d="M822.32,86.72h-2.82v-29.99h7.35c3.44,0,5.71,.55,7.31,1.72,1.89,1.39,2.9,3.57,2.9,6.3,0,3.11-1.47,5.67-3.95,6.8-1.43,.63-3.15,1.01-5.5,1.18l11.26,13.99h-3.24l-10.88-13.65h-2.44v13.65Zm3.99-15.92c2.94,0,4.54-.38,5.71-1.3,1.34-1.05,2.14-2.77,2.14-4.66,0-2.06-.92-3.86-2.48-4.83-1.05-.67-2.52-.92-5.04-.92h-4.33v11.72h3.99Z"/>
    <path class="cls-1" d="M844.22,82.26c2.06,1.6,5.12,2.48,8.65,2.48,4.5,0,7.1-2.06,7.1-5.59,0-1.68-.63-3.19-1.81-4.16-1.13-.92-1.76-1.22-5.59-2.73-6.01-2.35-8.02-4.58-8.02-8.7,0-4.49,3.19-7.27,8.49-7.27,2.94,0,5.38,.67,7.73,2.14l-1.09,2.1c-2.18-1.3-4.12-1.85-6.6-1.85-3.65,0-5.84,1.76-5.84,4.71,0,1.51,.63,2.94,1.76,3.87,1.05,.92,2.06,1.43,4.92,2.52,3.74,1.43,5.33,2.27,6.76,3.65,1.3,1.26,2.06,3.19,2.06,5.38,0,5.38-3.57,8.32-10.17,8.32-3.86,0-7.23-.92-9.54-2.69l1.18-2.18Z"/>
    <path class="cls-1" d="M531.34,106.7h15.25v2.39h-12.35v10.88h11.38v2.39h-11.38v14.33h-2.9v-29.99Z"/>
    <path class="cls-1" d="M582.06,121.7c0,9.03-6.26,15.42-15.08,15.42s-15.21-6.3-15.21-15.63c0-8.82,6.34-15.21,15.17-15.21s15.12,6.34,15.12,15.42Zm-27.3-.17c0,7.98,4.83,13.19,12.18,13.19s12.14-5.29,12.14-13.02-4.92-13.02-12.14-13.02-12.18,5.25-12.18,12.85Z"/>
    <path class="cls-1" d="M592.58,136.69h-2.82v-29.99h7.35c3.44,0,5.71,.55,7.31,1.72,1.89,1.39,2.9,3.57,2.9,6.3,0,3.11-1.47,5.67-3.95,6.8-1.43,.63-3.15,1.01-5.5,1.18l11.26,13.99h-3.24l-10.88-13.65h-2.44v13.65Zm3.99-15.92c2.94,0,4.54-.38,5.71-1.3,1.34-1.05,2.14-2.77,2.14-4.66,0-2.06-.92-3.87-2.48-4.83-1.05-.67-2.52-.92-5.04-.92h-4.33v11.72h3.99Z"/>
    <path class="cls-1" d="M641.68,121.4h11.51v2.18c0,3.23-.63,6.34-1.64,8.15-1.97,3.44-6.05,5.38-11.38,5.38-4.92,0-8.61-1.47-11.43-4.5-2.65-2.81-3.95-6.43-3.95-10.84,0-9.28,6.17-15.5,15.42-15.5,4.2,0,7.94,1.13,10.84,3.32l-1.22,1.97c-2.6-1.93-5.8-2.9-9.41-2.9-7.6,0-12.64,5.17-12.64,13.02,0,3.61,1.01,6.64,2.98,9.03,2.27,2.69,5.29,3.99,9.45,3.99,6.59,0,10-3.23,10-9.49v-1.6h-8.53v-2.23Z"/>
    <path class="cls-1" d="M689.47,121.7c0,9.03-6.26,15.42-15.08,15.42s-15.21-6.3-15.21-15.63c0-8.82,6.34-15.21,15.17-15.21s15.12,6.34,15.12,15.42Zm-27.3-.17c0,7.98,4.83,13.19,12.18,13.19s12.14-5.29,12.14-13.02-4.92-13.02-12.14-13.02-12.18,5.25-12.18,12.85Z"/>
    <path class="cls-1" d="M725.77,121.7c0,9.03-6.26,15.42-15.08,15.42s-15.21-6.3-15.21-15.63c0-8.82,6.34-15.21,15.17-15.21s15.12,6.34,15.12,15.42Zm-27.3-.17c0,7.98,4.83,13.19,12.18,13.19s12.14-5.29,12.14-13.02-4.92-13.02-12.14-13.02-12.18,5.25-12.18,12.85Z"/>
    <path class="cls-1" d="M733.47,106.7h7.27c5.54,0,9.33,1.13,12.22,3.61,3.11,2.65,4.75,6.64,4.75,11.38s-1.64,8.74-4.75,11.38c-2.9,2.48-6.68,3.61-12.22,3.61h-7.27v-29.99Zm7.69,27.6c4.5,0,7.65-.97,9.91-3.07,2.39-2.23,3.65-5.54,3.65-9.54s-1.26-7.31-3.65-9.54c-2.27-2.1-5.42-3.07-9.91-3.07h-4.79v25.2h4.79Z"/>
  </g>
  <line class="cls-16" x1="488.44" y1="54.67" x2="488.44" y2="140.65"/>
</svg>