<svg width="256" height="256" viewBox="0 0 256 256" xmlns="http://www.w3.org/2000/svg" xmlns:xlink="http://www.w3.org/1999/xlink" xml:space="preserve" overflow="hidden">
<g stroke-width="0" stroke-miterlimit="10" fill="none" transform="matrix(2.81 0 0 2.81 1.40659 1.40659)"><path d="M80.89 78.772 9.11 78.772C4.087 78.772 0 74.685 0 69.662L0 20.338C0 15.315 4.087 11.228 9.11 11.228L80.89 11.228C85.913 11.228 90 15.315 90 20.338L90 69.662C90 74.686 85.913 78.772 80.89 78.772ZM9.11 17.228C7.395 17.228 6 18.624 6 20.338L6 69.662C6 71.377 7.395 72.772 9.11 72.772L80.89 72.772C82.605 72.772 84 71.376 84 69.662L84 20.338C84 18.623 82.604 17.228 80.89 17.228L9.11 17.228Z" class="MsftOfcResponsive_Fill_00baed" stroke-width="1" fill="#00BAED"></path><path d="M45 55.427C39.592 55.427 34.401 53.135 30.758 49.139L2.493 18.125 6.928 14.083 35.193 45.096C37.738 47.888 41.221 49.427 45 49.427 48.779 49.427 52.262 47.889 54.808 45.096L83.074 14.083 87.508 18.125 59.241 49.138C55.599 53.135 50.408 55.427 45 55.427Z" class="MsftOfcResponsive_Fill_00baed" stroke-width="1" fill="#00BAED"></path><rect x="-0.96" y="57.16" rx="0" ry="0" width="38.98" height="6" class="MsftOfcResponsive_Fill_00baed" stroke-width="1" fill="#00BAED" transform="matrix(0.7053 -0.7089 0.7089 0.7053 -37.1881 30.8639)"></rect><rect x="68.47" y="40.67" rx="0" ry="0" width="6" height="38.98" class="MsftOfcResponsive_Fill_00baed" stroke-width="1" fill="#00BAED" transform="matrix(0.709 -0.7053 0.7053 0.709 -21.628 67.9146)"></rect></g></svg>