<svg width="256" height="256" viewBox="0 0 256 256" xmlns="http://www.w3.org/2000/svg" xmlns:xlink="http://www.w3.org/1999/xlink" xml:space="preserve" overflow="hidden"><g stroke-width="0" stroke-miterlimit="10" fill="none" transform="matrix(2.81 0 0 2.81 1.40659 1.40659)"><path d="M86 21.571 4 21.571C1.791 21.571 0 19.78 0 17.571 0 15.362 1.791 13.571 4 13.571L86 13.571C88.209 13.571 90 15.362 90 17.571 90 19.78 88.209 21.571 86 21.571Z" stroke-width="1" fill="#FFFFFF"></path><path d="M86 49 4 49C1.791 49 0 47.209 0 45 0 42.791 1.791 41 4 41L86 41C88.209 41 90 42.791 90 45 90 47.209 88.209 49 86 49Z" stroke-width="1" fill="#FFFFFF"></path><path d="M86 76.429 4 76.429C1.791 76.429 0 74.638 0 72.429 0 70.22 1.791 68.429 4 68.429L86 68.429C88.209 68.429 90 70.22 90 72.429 90 74.638 88.209 76.429 86 76.429Z" stroke-width="1" fill="#FFFFFF"></path></g></svg>