<svg width="256" height="256" viewBox="0 0 256 256" xmlns="http://www.w3.org/2000/svg" xmlns:xlink="http://www.w3.org/1999/xlink" xml:space="preserve" overflow="hidden"><g stroke-width="0" stroke-miterlimit="10" fill="none" transform="matrix(2.81 0 0 2.81 1.40659 1.40659)"><path d="M73.07 79.046 16.929 79.046C13.706 79.046 11.084 76.424 11.084 73.201 11.084 69.702 12.61 66.392 15.27 64.121 16.593 62.99 17.353 61.344 17.353 59.602L17.353 38.949C17.353 23.704 29.755 11.302 45 11.302 60.245 11.302 72.647 23.704 72.647 38.949L72.647 59.602C72.647 61.343 73.406 62.991 74.729 64.121 77.389 66.392 78.916 69.702 78.916 73.201 78.916 76.424 76.294 79.046 73.07 79.046ZM17.086 73.046 72.914 73.046C72.87 71.362 72.117 69.78 70.833 68.684 68.173 66.412 66.647 63.102 66.647 59.603L66.647 38.949C66.647 27.013 56.936 17.302 45 17.302 33.064 17.302 23.353 27.013 23.353 38.949L23.353 59.602C23.353 63.1 21.828 66.41 19.167 68.683 17.883 69.78 17.13 71.362 17.086 73.046Z" stroke-width="1" fill="#00BAED"></path><path d="M45 90C37.344 90 31.116 83.771 31.116 76.116 31.116 76.052 31.119 75.963 31.124 75.889 31.207 74.278 32.546 72.987 34.183 73.046 35.839 73.08 37.154 74.451 37.12 76.108 37.12 76.131 37.119 76.16 37.117 76.189 37.155 80.503 40.677 84 45 84 49.329 84 52.854 80.493 52.884 76.171 52.882 76.126 52.881 76.08 52.881 76.046 52.881 74.389 54.224 73.046 55.881 73.046 57.504 73.046 58.826 74.336 58.879 75.946 58.882 76.003 58.884 76.07 58.884 76.116 58.884 83.771 52.655 90 45 90Z" stroke-width="1" fill="#00BAED"></path><path d="M45 17.305C40.229 17.305 36.348 13.423 36.348 8.652 36.348 3.881 40.229 0 45 0 49.771 0 53.652 3.881 53.652 8.652 53.652 13.423 49.771 17.305 45 17.305ZM45 6C43.538 6 42.348 7.19 42.348 8.652 42.348 10.115 43.538 11.305 45 11.305 46.463 11.305 47.652 10.115 47.652 8.652 47.652 7.19 46.463 6 45 6Z" stroke-width="1" fill="#00BAED"></path><path d="M83.517 41.949C81.86 41.949 80.517 40.606 80.517 38.949 80.517 25.709 73.224 13.656 61.484 7.492 60.017 6.722 59.452 4.908 60.222 3.441 60.992 1.975 62.803 1.41 64.273 2.179 77.994 9.383 86.517 23.471 86.517 38.949 86.517 40.606 85.174 41.949 83.517 41.949Z" stroke-width="1" fill="#00BAED"></path><path d="M6.483 41.949C4.826 41.949 3.483 40.606 3.483 38.949 3.483 23.472 12.006 9.384 25.726 2.18 27.191 1.41 29.007 1.975 29.777 3.442 30.547 4.909 29.982 6.723 28.515 7.493 16.776 13.656 9.483 25.709 9.483 38.949 9.483 40.606 8.14 41.949 6.483 41.949Z" stroke-width="1" fill="#00BAED"></path></g></svg>