<svg width="256" height="256" viewBox="0 0 256 256" xmlns="http://www.w3.org/2000/svg" xmlns:xlink="http://www.w3.org/1999/xlink" xml:space="preserve" overflow="hidden">
<g stroke-width="0" stroke-miterlimit="10" fill="none" transform="matrix(2.81 0 0 2.81 1.40659 1.40659)"><path d="M34.268 90C33.599 90 32.93 89.868 32.293 89.605L22.448 85.526C21.174 84.999 20.181 84.007 19.653 82.731 19.125 81.457 19.125 80.052 19.653 78.778 20.869 75.842 19.728 73.22 18.254 71.746 16.78 70.271 14.16 69.131 11.221 70.347 9.948 70.876 8.544 70.875 7.269 70.348 5.994 69.82 5.001 68.828 4.474 67.553L0.396 57.709C-0.693 55.079 0.56 52.052 3.19 50.961 6.128 49.745 7.174 47.085 7.174 45 7.174 42.916 6.128 40.255 3.191 39.038 1.917 38.51 0.924 37.518 0.396 36.243-0.132 34.969-0.132 33.565 0.396 32.291L4.474 22.447C5.564 19.816 8.594 18.564 11.221 19.652 14.157 20.868 16.779 19.727 18.254 18.253 19.728 16.779 20.87 14.158 19.653 11.221 18.563 8.59 19.817 5.564 22.448 4.474L32.292 0.397C33.566-0.131 34.97-0.131 36.245 0.397 37.52 0.925 38.513 1.918 39.04 3.193 40.256 6.129 42.917 7.175 45.002 7.175 47.087 7.175 49.747 6.129 50.964 3.192 52.054 0.561 55.079-0.693 57.712 0.397L67.557 4.474C68.831 5.002 69.824 5.994 70.352 7.269 70.879 8.543 70.879 9.948 70.351 11.222 69.134 14.158 70.277 16.779 71.75 18.253 73.225 19.727 75.847 20.868 78.782 19.652 80.059 19.124 81.462 19.125 82.735 19.652 84.01 20.18 85.003 21.173 85.531 22.448L89.608 32.291C90.697 34.922 89.443 37.949 86.813 39.038 83.876 40.255 82.83 42.916 82.83 45 82.83 47.085 83.876 49.745 86.813 50.962L86.814 50.962C89.443 52.053 90.697 55.079 89.609 57.709L85.53 67.554C85.003 68.827 84.01 69.82 82.735 70.349 81.462 70.877 80.056 70.877 78.781 70.348 75.847 69.131 73.224 70.274 71.75 71.747 70.276 73.222 69.135 75.843 70.351 78.779 70.879 80.053 70.879 81.457 70.352 82.732 69.824 84.007 68.831 84.999 67.556 85.528L57.712 89.605C55.082 90.695 52.055 89.439 50.964 86.811 49.747 83.873 47.087 82.826 45.002 82.826 42.918 82.826 40.256 83.873 39.04 86.81 38.513 88.083 37.52 89.076 36.246 89.605 35.607 89.868 34.937 90 34.268 90ZM25.491 80.293 33.84 83.752C35.945 79.458 40.15 76.826 45.001 76.826 45.001 76.826 45.001 76.826 45.001 76.826 49.853 76.826 54.057 79.459 56.161 83.752L64.509 80.293C62.962 75.769 64.074 70.935 67.505 67.505 70.936 64.074 75.77 62.961 80.294 64.509L83.753 56.161C79.459 54.057 76.827 49.852 76.827 45.001 76.827 40.149 79.459 35.944 83.753 33.839L80.294 25.49C75.771 27.039 70.935 25.925 67.505 22.496 64.073 19.065 62.962 14.231 64.509 9.707L56.161 6.249C54.058 10.542 49.853 13.174 45.001 13.174 40.149 13.174 35.944 10.542 33.839 6.249L25.49 9.707C27.038 14.231 25.926 19.065 22.495 22.496 19.064 25.927 14.231 27.04 9.706 25.49L6.248 33.839C10.542 35.944 13.174 40.149 13.174 45.001 13.174 49.853 10.542 54.057 6.248 56.161L9.706 64.509C14.231 62.962 19.065 64.074 22.495 67.504 25.927 70.935 27.039 75.769 25.491 80.293ZM84.511 56.503C84.512 56.503 84.513 56.503 84.514 56.504 84.513 56.503 84.512 56.503 84.511 56.503ZM45.001 65.781C33.543 65.781 24.22 56.459 24.22 45 24.22 33.541 33.543 24.219 45.001 24.219 56.459 24.219 65.783 33.541 65.783 45 65.783 56.459 56.46 65.781 45.001 65.781ZM45.001 30.218C36.851 30.218 30.22 36.85 30.22 45 30.22 53.151 36.851 59.782 45.001 59.782 53.152 59.782 59.783 53.151 59.783 45 59.783 36.85 53.153 30.218 45.001 30.218Z" class="MsftOfcThm_Background1_Stroke_v2 MsftOfcThm_Background1_Fill_v2" stroke="#FFFFFF" stroke-width="1" fill="#FFFFFF"></path></g></svg>