<svg width="256" height="256" viewBox="0 0 256 256" xmlns="http://www.w3.org/2000/svg" xmlns:xlink="http://www.w3.org/1999/xlink" xml:space="preserve" overflow="hidden"><g stroke-width="0" stroke-miterlimit="10" fill="none" transform="matrix(2.81 0 0 2.81 1.40659 1.40659)"><path d="M45 53.718C34.978 53.718 26.825 45.565 26.825 35.543 26.825 25.521 34.978 17.368 45 17.368 55.021 17.368 63.175 25.521 63.175 35.543 63.175 45.565 55.021 53.718 45 53.718Z" stroke-width="1" fill="currentColor"></path><path d="M45 0C20.187 0 0 20.187 0 45 0 69.813 20.187 90 45 90 69.813 90 90 69.813 90 45 90 20.187 69.813 0 45 0ZM74.821 70.096C71.278 64.843 66.364 60.528 60.662 57.763 58.401 56.667 55.761 56.683 53.415 57.81 50.777 59.078 47.945 59.72 45 59.72 42.055 59.72 39.224 59.077 36.585 57.81 34.242 56.685 31.601 56.667 29.338 57.763 23.636 60.528 18.722 64.843 15.178 70.096 9.457 63.308 6 54.552 6 45 6 23.495 23.495 6 45 6 66.505 6 84 23.495 84 45 84 54.552 80.543 63.308 74.821 70.096Z" stroke-width="1" fill="currentColor"></path></g></svg>